<svg id="Layer_1" data-name="Layer 1" xmlns="http://www.w3.org/2000/svg" viewBox="0 0 1920 1280"><defs><style>.cls-1{fill:#f2f2f2;}.cls-2,.cls-6{fill:#c7e591;}.cls-2{opacity:0.67;}.cls-3,.cls-7{fill:#ffcfd7;}.cls-3{opacity:0.7;}.cls-4{fill:#dff0c1;}.cls-5{fill:#d9d9d9;}.cls-6{opacity:0.5;}.cls-8{fill:#cae798;}.cls-9{fill:#fff;opacity:0.45;}</style></defs><title>BCGF3</title><rect class="cls-1" width="1920" height="1280"/><polygon class="cls-2" points="274.56 244.84 313.08 165.72 352.39 233.8 391.7 301.88 313.87 312.92 236.03 323.96 274.56 244.84"/><ellipse class="cls-3" cx="1645.83" cy="451.23" rx="213.69" ry="212.35" transform="translate(1192.61 2096.46) rotate(-89.93)"/><polygon class="cls-4" points="175.17 379 217.34 379 196.25 406.35 175.17 433.69 154.09 406.35 133 379 175.17 379"/><ellipse class="cls-5" cx="1608.98" cy="748.34" rx="116.86" ry="116.13" transform="translate(858.69 2356.36) rotate(-89.93)"/><ellipse class="cls-6" cx="1459.81" cy="631.3" rx="86.81" ry="86.27" transform="translate(826.74 2090.29) rotate(-89.93)"/><ellipse class="cls-3" cx="361.01" cy="1002.55" rx="78.5" ry="78.01" transform="translate(-641.97 1362.29) rotate(-89.93)"/><ellipse class="cls-4" cx="388.07" cy="824.43" rx="18.46" ry="18.35" transform="translate(-436.83 1211.45) rotate(-89.93)"/><ellipse class="cls-7" cx="292.37" cy="907.34" rx="48.06" ry="47.76" transform="matrix(0, -1, 1, 0, -615.33, 1198.56)"/><ellipse class="cls-5" cx="425.12" cy="907.55" rx="42.93" ry="42.66" transform="matrix(0, -1, 1, 0, -482.95, 1331.53)"/><ellipse class="cls-8" cx="320.12" cy="843.35" rx="31.89" ry="31.69" transform="translate(-523.61 1162.4) rotate(-89.93)"/><rect class="cls-9" width="1920" height="1280"/></svg>