<?xml version="1.0" encoding="utf-8"?>
<!-- Generator: Adobe Illustrator 22.0.1, SVG Export Plug-In . SVG Version: 6.00 Build 0)  -->
<svg version="1.1" id="Layer_1" xmlns="http://www.w3.org/2000/svg" xmlns:xlink="http://www.w3.org/1999/xlink" x="0px" y="0px"
	 viewBox="0 0 100 125" style="enable-background:new 0 0 100 125;" xml:space="preserve">
<style type="text/css">
	.st0{fill:#FFFFFF;}
	.st1{fill:#FCFCFC;}
</style>
<path class="st0" d="M57.1,44.5c1.5-5.4,3.5-12.1,1.1-17.6c-2.2-5.3-9.8-5.6-14-4.9c-8.1,1.5-19.2,9.1-17.8,20.2
	c1,8,7.8,17.2,7.6,24.3c-0.2,6-3.7,12.6-2,18.5c2.5,8.2,14.5,10.9,19.1,3.7c6.4-10.1,0.4-23.4,1.8-34.7
	C53.3,51.1,56.3,47.5,57.1,44.5z M39.2,47.9c-3-0.9-11.6-4.7-1.8-17.2c5.3,3.6,7.3,6.7,7.7,9.3c-2.5,0.9-4.3,2.7-4,5.8
	c-1.4-3.3-2.5-7.8-2.9-10.6C37.8,38.6,38.3,44.4,39.2,47.9z M44,49.7c1-2,2.4-3.8,4-5.3c-2.1,1.1-3.9,2.6-5.5,4.3
	c-0.7-2-2.2-8.6,9.1-8.2C51.9,50.8,46.5,50.4,44,49.7z"/>
<path class="st0" d="M54.1,19.1c2.8,0.2,5.3-2.6,5.5-6.2s-1.9-6.7-4.7-6.8c-2.8-0.2-5.3,2.6-5.5,6.2C49.2,15.8,51.3,18.9,54.1,19.1z
	"/>
<path class="st0" d="M44,18.3c2,0.1,3.7-1.8,3.8-4.3s-1.3-4.6-3.3-4.8c-2-0.1-3.7,1.8-3.8,4.3C40.6,16,42.1,18.2,44,18.3z"/>
<path class="st0" d="M36.3,21c1.8,0.1,3.4-1.7,3.5-4s-1.2-4.3-3-4.4c-1.8-0.1-3.4,1.7-3.5,4C33.1,18.9,34.5,20.9,36.3,21z"/>
<path class="st1" d="M30.7,24.6c1.5-0.1,2.6-1.7,2.4-3.6c-0.1-1.9-1.4-3.3-2.9-3.2c-1.5,0.1-2.6,1.8-2.4,3.6
	C27.9,23.2,29.2,24.7,30.7,24.6z"/>
<path class="st0" d="M26.2,29.2c1.4-0.3,2.2-2,1.8-3.7c-0.4-1.7-1.8-2.9-3.1-2.6c-1.4,0.3-2.2,2-1.8,3.7
	C23.5,28.4,24.9,29.5,26.2,29.2z"/>
<path class="st0" d="M70,58.5l7.7-7.7c0.2-0.2,0.3-0.5,0.3-0.8c0-0.1,0-0.3-0.1-0.4c-0.2-0.4-0.6-0.7-1-0.7h-5.5V24.6
	c0-0.6-0.5-1.1-1.1-1.1h-2.2c-0.6,0-1.1,0.5-1.1,1.1v24.3h-5.5c-0.4,0-0.8,0.3-1,0.7c-0.1,0.1-0.1,0.3-0.1,0.4
	c0,0.3,0.1,0.6,0.3,0.8l7.7,7.7C68.9,59,69.6,59,70,58.5z"/>
</svg>
