<?xml version="1.0" encoding="utf-8"?>
<!-- Generator: Adobe Illustrator 22.0.1, SVG Export Plug-In . SVG Version: 6.00 Build 0)  -->
<svg version="1.1" id="Layer_1" xmlns="http://www.w3.org/2000/svg" xmlns:xlink="http://www.w3.org/1999/xlink" x="0px" y="0px"
	 viewBox="0 0 100 125" style="enable-background:new 0 0 100 125;" xml:space="preserve">
<style type="text/css">
	.st0{fill:#FFFFFF;}
</style>
<title>01</title>
<path class="st0" d="M66.7,7.9H33.3c-6.1,0-11,4.9-11,11v19h55.3v-19C77.7,12.8,72.7,7.9,66.7,7.9L66.7,7.9z M38.8,29.7
	c0,1.7-1.3,3-3,3s-3-1.3-3-3l0,0v-8.2c0-1.7,1.3-3,3-3s3,1.3,3,3V29.7z"/>
<path class="st0" d="M22.3,81.1c0,6.1,4.9,11,11,11h33.3c6.1,0,11-4.9,11-11V42.8H22.3V81.1z M32.8,51c0-1.7,1.3-3,3-3s3,1.3,3,3
	v8.2c0,1.7-1.3,3-3,3s-3-1.3-3-3V51z"/>
</svg>
