<?xml version="1.0" encoding="utf-8"?>
<!-- Generator: Adobe Illustrator 22.0.1, SVG Export Plug-In . SVG Version: 6.00 Build 0)  -->
<svg version="1.1" id="Layer_1" xmlns="http://www.w3.org/2000/svg" xmlns:xlink="http://www.w3.org/1999/xlink" x="0px" y="0px"
	 viewBox="0 0 100 125" style="enable-background:new 0 0 100 125;" xml:space="preserve">
<style type="text/css">
	.st0{fill:#FFFDFD;}
</style>
<path class="st0" d="M99.5,45.8h-9.8c-2-18.6-16.8-33.5-35.4-35.4V0.5h-8.5v9.8c-18.6,2-33.5,16.8-35.4,35.4H0.5v8.5h9.8
	c2,18.6,16.8,33.5,35.4,35.4v9.8h8.5v-9.8c18.6-2,33.5-16.8,35.4-35.4h9.8L99.5,45.8L99.5,45.8z M50,81.4
	c-17.3,0-31.4-14.1-31.4-31.4S32.7,18.6,50,18.6S81.4,32.7,81.4,50S67.3,81.4,50,81.4z M50,25.6c-13.5,0-24.4,10.9-24.4,24.4
	S36.5,74.4,50,74.4S74.4,63.5,74.4,50S63.5,25.6,50,25.6z M51.6,55.4l-4.8,4.7l-4.7-4.8l-4.6-4.6l4.8-4.7l4.6,4.6l10.9-10.8l4.7,4.8
	L51.6,55.4z"/>
</svg>
