<?xml version="1.0" encoding="utf-8"?>
<!-- Generator: Adobe Illustrator 22.0.1, SVG Export Plug-In . SVG Version: 6.00 Build 0)  -->
<svg version="1.1" id="Layer_1" xmlns="http://www.w3.org/2000/svg" xmlns:xlink="http://www.w3.org/1999/xlink" x="0px" y="0px"
	 viewBox="0 0 32 40" style="enable-background:new 0 0 32 40;" xml:space="preserve">
<style type="text/css">
	.st0{display:none;}
	.st1{display:inline;}
	.st2{fill:#FFFFFF;}
	.st3{fill:none;}
	.st4{enable-background:new    ;}
</style>
<g class="st0">
	<rect x="-370.5" y="-166" class="st1" width="415.1" height="207.3"/>
</g>
<g>
	<path class="st2" d="M16,0c-2.3,0-4.1,1.8-4.1,4.1s1.8,4.1,4.1,4.1s4.1-1.8,4.1-4.1C20.1,1.8,18.3,0,16,0z M16,6.2
		c-1.2,0-2.1-1-2.1-2.1S14.8,2,16,2s2.1,1,2.1,2.1C18.1,5.3,17.2,6.2,16,6.2z"/>
	<path class="st2" d="M7.6,13.1c0,3.8,0,4.7,0,4.7s8.2,0,8.2,0l-4-8.6C11.8,9.2,7.6,9.2,7.6,13.1z"/>
	<path class="st2" d="M24.4,13.1c0-3.8-4.2-3.9-4.2-3.9l-4,8.6c0,0,8.2,0,8.2,0S24.4,16.9,24.4,13.1z"/>
	<polygon class="st2" points="13.1,9.2 16,15.5 18.9,9.2 16,9.2 	"/>
	<path class="st3" d="M27,20.8c-1.4,0-2.5,1.1-2.5,2.5c0,0.3,0.1,0.5,0.1,0.8l-3.6,3.1c-0.3-0.2-0.7-0.3-1.1-0.3
		c-0.5,0-1.1,0.2-1.5,0.5l-5.9-3.7c0-0.1,0-0.3,0-0.4c0-1.4-1.1-2.5-2.5-2.5s-2.5,1.1-2.5,2.5c0,0.4,0.1,0.8,0.3,1.2L5.7,27
		C5.5,27,5.2,26.9,5,26.9c-1.4,0-2.5,1.1-2.5,2.5S3.6,32,5,32s2.5-1.1,2.5-2.5c0-0.4-0.1-0.8-0.3-1.1l2.2-2.6
		c0.2,0.1,0.5,0.1,0.7,0.1c0.5,0,1-0.2,1.5-0.5l5.9,3.7c0,0.1,0,0.2,0,0.4c0,1.4,1.1,2.5,2.5,2.5s2.5-1.1,2.5-2.5
		c0-0.3-0.1-0.5-0.1-0.8l3.6-3.1c0.3,0.2,0.7,0.3,1.1,0.3c1.4,0,2.5-1.1,2.5-2.5S28.4,20.8,27,20.8z"/>
</g>
</svg>
