<?xml version="1.0" encoding="utf-8"?>
<!-- Generator: Adobe Illustrator 22.0.1, SVG Export Plug-In . SVG Version: 6.00 Build 0)  -->
<svg version="1.1" id="Layer_1" xmlns="http://www.w3.org/2000/svg" xmlns:xlink="http://www.w3.org/1999/xlink" x="0px" y="0px"
	 viewBox="0 0 48 75" style="enable-background:new 0 0 48 75;" xml:space="preserve">
<style type="text/css">
	.st0{fill:#FFFFFF;}
</style>
<title>27 -More Settings- (Outline)</title>
<desc>Created with Sketch.</desc>
<g>
	<g transform="translate(-845.000000, -590.000000)">
		<g transform="translate(845.000000, 590.000000)">
			<path class="st0" d="M17,5h5c0.6,0,1-0.4,1-1s-0.4-1-1-1h-5c-0.6,0-1,0.4-1,1S16.4,5,17,5z"/>
			<path class="st0" d="M13,5h1c0.6,0,1-0.4,1-1s-0.4-1-1-1h-1c-0.6,0-1,0.4-1,1S12.4,5,13,5z"/>
			<path class="st0" d="M0,10v1c0,0.6,0.4,1,1,1s1-0.4,1-1v-1c0-0.6-0.4-1-1-1S0,9.4,0,10z"/>
			<path class="st0" d="M0,14v1c0,0.6,0.4,1,1,1s1-0.4,1-1v-1c0-0.6-0.4-1-1-1S0,13.4,0,14z"/>
			<path class="st0" d="M0,18v1c0,0.6,0.4,1,1,1s1-0.4,1-1v-1c0-0.6-0.4-1-1-1S0,17.4,0,18z"/>
			<path class="st0" d="M20,55c0,1.1-0.9,2-2,2s-2-0.9-2-2s0.9-2,2-2S20,53.9,20,55z M22,55c0-2.2-1.8-4-4-4s-4,1.8-4,4s1.8,4,4,4
				S22,57.2,22,55z"/>
			<path class="st0" d="M29,31c-0.4,0-0.8,0.2-0.9,0.6L27,34.3l-1-2.7c-0.2-0.4-0.6-0.6-1-0.6h-3V13h24v18H29z M26.1,37.4
				c0.3,0.8,1.5,0.8,1.9,0l1.7-4.4H47c0.6,0,1-0.4,1-1V12c0-0.6-0.4-1-1-1H21c-0.6,0-1,0.4-1,1v20c0,0.6,0.4,1,1,1h3.4L26.1,37.4z"
				/>
			<path class="st0" d="M26,31.6c-0.2-0.4-0.6-0.6-1-0.6h-3V13h12c0.6,0,1-0.4,1-1V4c0-2.2-1.8-4-4-4H5C2.8,0,1,1.8,1,4v52
				c0,2.2,1.8,4,4,4h26c2.2,0,4-1.8,4-4V32c0-0.6-0.4-1-1-1h-5c-0.4,0-0.8,0.2-0.9,0.6L27,34.3L26,31.6z M33,33v23c0,1.1-0.9,2-2,2
				H5c-1.1,0-2-0.9-2-2V4c0-1.1,0.9-2,2-2h26c1.1,0,2,0.9,2,2v7H21c-0.6,0-1,0.4-1,1v20c0,0.6,0.4,1,1,1h3.4l1.7,4.4
				c0.3,0.8,1.5,0.8,1.9,0l1.7-4.4H33z"/>
			<path class="st0" d="M26,31.6c-0.2-0.4-0.6-0.6-1-0.6h-3V13h12c0.6,0,1-0.4,1-1V7c0-0.6-0.4-1-1-1H2C1.4,6,1,6.4,1,7v44
				c0,0.6,0.4,1,1,1h32c0.6,0,1-0.4,1-1V32c0-0.6-0.4-1-1-1h-5c-0.4,0-0.8,0.2-0.9,0.6L27,34.3L26,31.6z M33,33v17H3V8h30v3H21
				c-0.6,0-1,0.4-1,1v20c0,0.6,0.4,1,1,1h3.4l1.7,4.4c0.3,0.8,1.5,0.8,1.9,0l1.7-4.4H33z"/>
			<path class="st0" d="M28,22c0,0.6-0.4,1-1,1s-1-0.4-1-1s0.4-1,1-1S28,21.4,28,22z M30,22c0-1.7-1.3-3-3-3s-3,1.3-3,3s1.3,3,3,3
				S30,23.7,30,22z"/>
			<path class="st0" d="M35,22c0,0.6-0.4,1-1,1s-1-0.4-1-1s0.4-1,1-1S35,21.4,35,22z M37,22c0-1.7-1.3-3-3-3s-3,1.3-3,3s1.3,3,3,3
				S37,23.7,37,22z"/>
			<path class="st0" d="M42,22c0,0.6-0.4,1-1,1s-1-0.4-1-1s0.4-1,1-1S42,21.4,42,22z M44,22c0-1.7-1.3-3-3-3s-3,1.3-3,3s1.3,3,3,3
				S44,23.7,44,22z"/>
		</g>
	</g>
</g>
</svg>
