<?xml version="1.0" encoding="utf-8"?>
<!-- Generator: Adobe Illustrator 22.0.1, SVG Export Plug-In . SVG Version: 6.00 Build 0)  -->
<svg version="1.1" id="Layer_1" xmlns="http://www.w3.org/2000/svg" xmlns:xlink="http://www.w3.org/1999/xlink" x="0px" y="0px"
	 viewBox="0 0 100 125" style="enable-background:new 0 0 100 125;" xml:space="preserve">
<style type="text/css">
	.st0{fill:#FFFFFF;}
</style>
<g>
	<path class="st0" d="M59.7,22.2L71.1,6.1c-1.7-0.3-3.3-0.8-4.4-1.8c-1.1-1.1-2.9-1.7-4.8-1.7c-1.9,0-3.7,0.6-4.8,1.7
		c-1.4,1.3-3.5,2.1-5.8,2.1s-4.4-0.8-5.8-2.1c-1.1-1.1-2.9-1.7-4.8-1.7c-1.9,0-3.7,0.6-4.8,1.7s-2.7,1.6-4.4,1.9l11.4,16.1
		c2.6-0.8,5.5-1.3,8.6-1.3C54.4,20.8,57.1,21.4,59.7,22.2 M63.9,76.9c0,0.8-0.7,1.5-1.5,1.5H40.2c-0.8,0-1.5-0.7-1.5-1.5v-2.1
		c0-0.8,0.8-1.5,1.6-1.5c1.9,0,2.3-0.9,2.3-3v-8h-2.3c-0.8,0-1.5-0.7-1.5-1.5v-1.9c0-0.8,0.7-1.5,1.5-1.5h2.3v-6.9
		c0-6.5,4.8-10.2,10.8-10.2c5.7,0,9.9,3.9,9.9,10c0,0.8-0.6,1.5-1.5,1.5H59c-0.8,0-1.4-0.6-1.4-1.5c0-2.7-1.1-4.5-4.2-4.5
		c-3,0-4.4,1.9-4.4,4.6v6.9h5.7c0.8,0,1.5,0.7,1.5,1.5v1.9c0,0.8-0.7,1.5-1.5,1.5H49v11h13.3c0.8,0,1.5,0.7,1.5,1.5
		C63.9,74.8,63.9,76.9,63.9,76.9z M85.3,68.7c-4.2-23.5-15.2-43.4-33.9-43.4S23.6,44.4,17.5,68.7c-4.7,19,5.4,28.8,33.9,28.8
		C81.9,97.5,88.8,88,85.3,68.7"/>
</g>
</svg>
